<svg width="20" height="20" viewBox="0 0 20 20" fill="none" xmlns="http://www.w3.org/2000/svg">
<path d="M13.5 8.5C13.5 5.73858 11.2614 3.5 8.5 3.5C5.73858 3.5 3.5 5.73858 3.5 8.5C3.5 11.2614 5.73857 13.5 8.5 13.5C11.2614 13.5 13.5 11.2614 13.5 8.5ZM16.5 8.5C16.5 10.167 15.9885 11.7137 15.1162 12.9951L19.1279 17.0068L17.0068 19.1279L12.9951 15.1162C11.7137 15.9885 10.167 16.5 8.5 16.5C4.08172 16.5 0.5 12.9183 0.5 8.5C0.500001 4.08172 4.08172 0.500001 8.5 0.5C12.9183 0.500001 16.5 4.08172 16.5 8.5Z" fill="black"/>
</svg>
