<svg width="11" height="11" viewBox="0 0 11 11" fill="none" xmlns="http://www.w3.org/2000/svg">
<path d="M9.04919 0.322389C9.47532 -0.107183 10.1661 -0.107183 10.5922 0.322389C11.0183 0.751961 11.0183 1.44827 10.5922 1.87784L7.04297 5.45567L10.6803 9.1223L10.7556 9.20609C11.1049 9.63813 11.0797 10.2751 10.6803 10.6778C10.2809 11.0803 9.64896 11.1058 9.2204 10.7537L9.13728 10.6778L5.49995 7.01112L1.86263 10.6778C1.43649 11.1073 0.745744 11.1073 0.319604 10.6778C-0.106535 10.2482 -0.106535 9.55187 0.319604 9.1223L3.95693 5.45567L0.407696 1.87784L0.333102 1.79405C-0.0163703 1.36204 0.00829504 0.725092 0.407696 0.322389C0.807194 -0.0803279 1.43972 -0.105886 1.86831 0.246479L1.95072 0.322389L5.49995 3.90022L9.04919 0.322389Z" fill="black"/>
</svg>
