<svg aria-hidden="true" xmlns="http://www.w3.org/2000/svg" xmlns:xlink="http://www.w3.org/1999/xlink"><symbol viewBox="0 0 20 20" fill="none" id="icon-search" xmlns="http://www.w3.org/2000/svg">
<path d="M13.5 8.5C13.5 5.73858 11.2614 3.5 8.5 3.5C5.73858 3.5 3.5 5.73858 3.5 8.5C3.5 11.2614 5.73857 13.5 8.5 13.5C11.2614 13.5 13.5 11.2614 13.5 8.5ZM16.5 8.5C16.5 10.167 15.9885 11.7137 15.1162 12.9951L19.1279 17.0068L17.0068 19.1279L12.9951 15.1162C11.7137 15.9885 10.167 16.5 8.5 16.5C4.08172 16.5 0.5 12.9183 0.5 8.5C0.500001 4.08172 4.08172 0.500001 8.5 0.5C12.9183 0.500001 16.5 4.08172 16.5 8.5Z" fill="currentColor"/>
</symbol><symbol viewBox="0 0 26 21" fill="none" id="icon-tg" xmlns="http://www.w3.org/2000/svg">
<path d="M25.9597 0.448069C25.9382 0.354872 25.892 0.268868 25.8257 0.198732C25.7594 0.128596 25.6754 0.0768089 25.5822 0.048593C25.2026 -0.0932211 24.5619 0.120499 24.5619 0.120499C24.5619 0.120499 1.76051 8.13599 0.464743 9.02483C0.183144 9.22457 0.0913182 9.32643 0.044385 9.45826C-0.180078 10.0914 0.519838 10.3691 0.519838 10.3691L6.38241 12.2426H6.43547L9.1882 19.7008C9.1882 19.7008 9.44123 20.2142 9.7514 20.376C9.95546 20.5118 10.3432 20.4179 11.1267 19.6509C12.3858 18.4185 13.606 17.3859 14.2162 16.8845C16.2363 18.2507 18.4116 19.7608 19.3482 20.5497C19.5056 20.6989 19.692 20.8156 19.8964 20.8928C20.1007 20.97 20.3189 21.0062 20.5379 20.9991C21.4296 20.9672 21.6765 20.0004 21.6765 20.0004C21.6765 20.0004 25.8311 3.63389 25.9617 1.44077C25.976 1.22505 25.9944 1.08923 25.9964 0.941423C26.0068 0.776104 25.9945 0.610162 25.9597 0.448069Z" fill="currentColor"/>
</symbol></svg>